<?xml version="1.0" encoding="UTF-8"?>
<svg version="1.1" xmlns="http://www.w3.org/2000/svg" width="296" height="296">
<path d="M0 0 C2.14889196 -0.0027001 4.29778272 -0.00658682 6.44667053 -0.01159668 C10.93421139 -0.01746858 15.42143213 -0.00900425 19.90893555 0.00976562 C25.62916819 0.0325396 31.34864927 0.0194267 37.06885433 -0.00452423 C41.50185186 -0.01905655 45.93467456 -0.01434204 50.36767769 -0.00401306 C52.47536879 -0.00136556 54.58307635 -0.00454501 56.69074821 -0.01393127 C74.39606652 -0.07548861 87.9194141 1.77987219 101.84765625 13.53125 C112.99844598 24.86218173 117.15060264 37.16154263 117.13818359 52.7019043 C117.14490082 53.91260086 117.15161804 55.12329742 117.15853882 56.37068176 C117.17423616 59.67682982 117.18089127 62.98272655 117.18217039 66.28889441 C117.18359707 68.36029417 117.18787651 70.43166801 117.19316483 72.50306129 C117.21164449 79.74644249 117.2198384 86.98975031 117.21826172 94.2331543 C117.21706222 100.95705275 117.23813198 107.68062923 117.26974905 114.4044463 C117.29601448 120.19922205 117.30662468 125.99389334 117.3053509 131.78872806 C117.30484409 135.23985403 117.31036924 138.69069385 117.331707 142.14175987 C117.35142058 145.9993149 117.34550635 149.85605335 117.33349609 153.71362305 C117.34473511 154.83767548 117.35597412 155.96172791 117.36755371 157.11984253 C117.2759851 168.76175288 113.91847171 178.31776319 106.84765625 187.53125 C106.4196875 188.13453125 105.99171875 188.7378125 105.55078125 189.359375 C98.72819669 198.26886778 87.8157559 204.45967531 76.84765625 206.53125 C69.43692964 207.29117431 61.95179582 207.1196427 54.51171875 207.09765625 C52.34280126 207.10290136 50.17388605 207.10918106 48.00497437 207.11643982 C43.47456069 207.12680636 38.94446183 207.12233708 34.4140625 207.10766602 C28.6422526 207.09049376 22.87143974 207.11397499 17.09974098 207.14915562 C12.62465974 207.17124187 8.14981289 207.16966088 3.67469406 207.1613903 C1.54828168 207.16057675 -0.57814896 207.16732469 -2.70450974 207.18216133 C-20.78541281 207.28899531 -34.3420108 205.08796642 -48.15234375 192.53125 C-58.69524725 181.46507739 -62.45479921 169.28663917 -62.44287109 154.3605957 C-62.44958832 153.14989914 -62.45630554 151.93920258 -62.46322632 150.69181824 C-62.47892366 147.38567018 -62.48557877 144.07977345 -62.48685789 140.77360559 C-62.48828457 138.70220583 -62.49256401 136.63083199 -62.49785233 134.55943871 C-62.51633199 127.31605751 -62.5245259 120.07274969 -62.52294922 112.8293457 C-62.52174972 106.10544725 -62.54281948 99.38187077 -62.57443655 92.6580537 C-62.60070198 86.86327795 -62.61131218 81.06860666 -62.6100384 75.27377194 C-62.60953159 71.82264597 -62.61505674 68.37180615 -62.6363945 64.92074013 C-62.65610808 61.0631851 -62.65019385 57.20644665 -62.63818359 53.34887695 C-62.64942261 52.22482452 -62.66066162 51.10077209 -62.67224121 49.94265747 C-62.5806726 38.30074712 -59.22315921 28.74473681 -52.15234375 19.53125 C-51.724375 18.92796875 -51.29640625 18.3246875 -50.85546875 17.703125 C-37.99099776 0.90363935 -19.32737503 -0.0859764 0 0 Z M-32.15234375 35.53125 C-35.5257121 40.8425108 -37.26966168 45.90273426 -37.29278564 52.20365906 C-37.29849579 53.13853653 -37.30420593 54.073414 -37.31008911 55.03662109 C-37.31120697 56.0553833 -37.31232483 57.07414551 -37.31347656 58.1237793 C-37.31844147 59.20230667 -37.32340637 60.28083405 -37.32852173 61.39204407 C-37.3431364 64.96319211 -37.3499448 68.5342957 -37.35546875 72.10546875 C-37.36122147 74.58925884 -37.36697919 77.07304892 -37.3727417 79.55683899 C-37.3832502 84.76795661 -37.38909363 89.97905882 -37.39257812 95.19018555 C-37.39727174 101.85700569 -37.42207482 108.52359193 -37.45055008 115.19035625 C-37.46920562 120.32315153 -37.47438366 125.45589782 -37.475914 130.58872414 C-37.47893526 133.04582652 -37.48694594 135.50292814 -37.50009918 137.95999718 C-37.51721757 141.40407087 -37.51526482 144.84764867 -37.50878906 148.29174805 C-37.51800385 149.3003891 -37.52721863 150.30903015 -37.53671265 151.34823608 C-37.48195711 160.67851009 -35.58317574 167.92145136 -29.125 174.8046875 C-22.86622775 180.28266242 -16.08131173 181.68058835 -7.96826172 181.70825195 C-7.13371964 181.71482315 -6.29917755 181.72139435 -5.43934631 181.72816467 C-2.67440702 181.74789125 0.09047787 181.75956086 2.85546875 181.76953125 C3.8013171 181.77360678 4.74716545 181.7776823 5.72167587 181.78188133 C10.73111502 181.80274258 15.74052681 181.81704224 20.75 181.82641602 C25.91144077 181.83746097 31.07244811 181.87183864 36.23373604 181.91158772 C40.21274589 181.93780355 44.19165343 181.94611242 48.17074203 181.94969749 C50.07243643 181.95455316 51.97412658 181.9661379 53.87573624 181.98473549 C56.54656959 182.00922558 59.21629451 182.00814375 61.88720703 182.0012207 C62.66365067 182.01403076 63.4400943 182.02684082 64.24006653 182.04003906 C72.39338401 181.96353913 79.34749283 178.72368477 85.34375 173.2421875 C89.93730446 168.01627359 91.96289128 161.72732385 91.98809814 154.85884094 C91.99380829 153.92396347 91.99951843 152.989086 92.00540161 152.02587891 C92.00651947 151.0071167 92.00763733 149.98835449 92.00878906 148.9387207 C92.01375397 147.86019333 92.01871887 146.78166595 92.02383423 145.67045593 C92.0384489 142.09930789 92.0452573 138.5282043 92.05078125 134.95703125 C92.05653397 132.47324116 92.06229169 129.98945108 92.0680542 127.50566101 C92.0785627 122.29454339 92.08440613 117.08344118 92.08789062 111.87231445 C92.09258424 105.20549431 92.11738732 98.53890807 92.14586258 91.87214375 C92.16451812 86.73934847 92.16969616 81.60660218 92.1712265 76.47377586 C92.17424776 74.01667348 92.18225844 71.55957186 92.19541168 69.10250282 C92.21253007 65.65842913 92.21057732 62.21485133 92.20410156 58.77075195 C92.21792374 57.25779037 92.21792374 57.25779037 92.23202515 55.71426392 C92.17726961 46.38398991 90.27848824 39.14104864 83.8203125 32.2578125 C77.56154025 26.77983758 70.77662423 25.38191165 62.66357422 25.35424805 C61.82903214 25.34767685 60.99449005 25.34110565 60.13465881 25.33433533 C57.36971952 25.31460875 54.60483463 25.30293914 51.83984375 25.29296875 C50.8939954 25.28889322 49.94814705 25.2848177 48.97363663 25.28061867 C43.96419748 25.25975742 38.95478569 25.24545776 33.9453125 25.23608398 C28.78387173 25.22503903 23.62286439 25.19066136 18.46157646 25.15091228 C14.48256661 25.12469645 10.50365907 25.11638758 6.52457047 25.11280251 C4.62287607 25.10794684 2.72118592 25.0963621 0.81957626 25.07776451 C-1.85125709 25.05327442 -4.52098201 25.05435625 -7.19189453 25.0612793 C-7.96833817 25.04846924 -8.7447818 25.03565918 -9.54475403 25.02246094 C-18.3297577 25.10488778 -26.33463897 28.91266637 -32.15234375 35.53125 Z " fill="#3CC898" transform="translate(121.15234375,45.46875)"/>
<path d="M0 0 C1.0209375 -0.01160156 1.0209375 -0.01160156 2.0625 -0.0234375 C4.59062802 0.49645979 5.38587755 1.38543396 7 3.375 C7.36076355 5.25431824 7.36076355 5.25431824 7.34057617 7.38745117 C7.34034958 8.18805466 7.34012299 8.98865814 7.33988953 9.81352234 C7.32440567 10.67298965 7.30892181 11.53245697 7.29296875 12.41796875 C7.28872391 13.3015657 7.28447906 14.18516266 7.28010559 15.09553528 C7.26331043 17.91816661 7.22565697 20.74008441 7.1875 23.5625 C7.17245423 25.47590115 7.15876564 27.38931349 7.14648438 29.30273438 C7.11340419 33.99376459 7.0616163 38.68426131 7 43.375 C7.78761719 43.6740625 8.57523438 43.973125 9.38671875 44.28125 C11.96009159 45.35829693 13.28522533 46.20896884 15 48.375 C15 49.035 15 49.695 15 50.375 C15.70608398 50.35405273 16.41216797 50.33310547 17.13964844 50.31152344 C20.34295376 50.22830702 23.54603163 50.17632215 26.75 50.125 C28.41675781 50.07472656 28.41675781 50.07472656 30.1171875 50.0234375 C31.18710938 50.01054687 32.25703125 49.99765625 33.359375 49.984375 C34.34389648 49.96342773 35.32841797 49.94248047 36.34277344 49.92089844 C39.75178266 50.50347443 40.90513567 51.67568383 43 54.375 C43.5 57.375 43.5 57.375 43 60.375 C40.90513567 63.07431617 39.75178266 64.24652557 36.34277344 64.82910156 C35.35825195 64.8081543 34.37373047 64.78720703 33.359375 64.765625 C31.75449219 64.74628906 31.75449219 64.74628906 30.1171875 64.7265625 C29.00601563 64.69304687 27.89484375 64.65953125 26.75 64.625 C25.62335938 64.60695313 24.49671875 64.58890625 23.3359375 64.5703125 C20.55643104 64.52320222 17.7786466 64.45743361 15 64.375 C14.72027344 64.98859375 14.44054687 65.6021875 14.15234375 66.234375 C12.33564667 69.60912077 10.43827836 70.68602116 7 72.375 C1.62851655 73.17314019 -2.61003424 73.06998288 -7.5 70.625 C-11.9861825 66.58743575 -13.84749026 63.70077356 -14.25 57.5625 C-14.19807999 53.52757331 -13.16701527 50.82617247 -11 47.375 C-10.4781311 46.90823853 -9.95626221 46.44147705 -9.4185791 45.96057129 C-7.62893108 43.96024962 -7.62288163 42.97105571 -7.61523438 40.31835938 C-7.60006775 39.10194763 -7.60006775 39.10194763 -7.58459473 37.86096191 C-7.58761597 36.98903198 -7.59063721 36.11710205 -7.59375 35.21875 C-7.58291382 34.32007202 -7.57207764 33.42139404 -7.56091309 32.4954834 C-7.52660741 29.6219156 -7.51104733 26.74874583 -7.5 23.875 C-7.48546254 20.0933652 -7.45184548 16.31262359 -7.40625 12.53125 C-7.40927124 11.65932007 -7.41229248 10.78739014 -7.41540527 9.88903809 C-7.40023865 8.67262634 -7.40023865 8.67262634 -7.38476562 7.43164062 C-7.38271118 6.71899048 -7.38065674 6.00634033 -7.37854004 5.27209473 C-6.5634333 1.1870983 -3.89420559 -0.04425234 0 0 Z " fill="#3CC898" transform="translate(147,91.625)"/>
</svg>
