<?xml version="1.0" encoding="UTF-8"?>
<svg version="1.1" xmlns="http://www.w3.org/2000/svg" width="296" height="296">
<path d="M0 0 C1.49516647 -0.01210762 1.49516647 -0.01210762 3.02053833 -0.02445984 C5.13021122 -0.03826086 7.23990607 -0.04900073 9.34960938 -0.05688477 C11.47890907 -0.06834476 13.60818141 -0.08870027 15.73730469 -0.1184082 C41.74346021 -0.48061656 62.84978878 4.74392199 82.37890625 22.8671875 C95.69007741 36.49261903 101.27004876 54.55184444 101.0703125 73.23828125 C101.08191406 74.32367188 101.09351563 75.4090625 101.10546875 76.52734375 C101.06774345 87.06527834 98.99459465 96.82818978 94.1953125 106.23828125 C93.68581055 107.24556274 93.68581055 107.24556274 93.16601562 108.27319336 C89.41132277 115.31491568 84.4073192 120.73751741 78.6953125 126.23828125 C78.05078125 126.90214844 77.40625 127.56601563 76.7421875 128.25 C72.7088396 132.15182569 68.14765068 134.86754001 63.2578125 137.55078125 C62.64905273 137.88883789 62.04029297 138.22689453 61.41308594 138.57519531 C57.97850213 140.37547902 54.75545436 141.54620147 50.95288086 142.34448242 C49.75241371 142.59992073 49.75241371 142.59992073 48.5276947 142.86051941 C47.92300858 142.98518082 47.31832245 143.10984222 46.6953125 143.23828125 C46.70419495 144.01787201 46.71307739 144.79746277 46.722229 145.60067749 C46.80272378 152.98503197 46.8634526 160.36917059 46.90256119 167.75385094 C46.92334403 171.54947155 46.95148843 175.34472649 46.99707031 179.14013672 C47.04086433 182.81008062 47.06451937 186.47967513 47.07482147 190.14986038 C47.08215326 191.54277666 47.09646896 192.93567608 47.11823273 194.32844162 C47.30140709 206.54818457 45.18306727 216.11954231 36.6953125 225.23828125 C29.76870122 231.49667826 21.95885229 233.79935096 12.7578125 233.67578125 C11.96584473 233.66820801 11.17387695 233.66063477 10.35791016 233.65283203 C4.38786289 233.48429783 -0.27085863 232.61157321 -5.3046875 229.23828125 C-6.00851563 228.79097656 -6.71234375 228.34367188 -7.4375 227.8828125 C-15.01526302 222.66785751 -19.33894393 216.22587022 -21.3046875 207.23828125 C-21.69800917 202.27739777 -21.65570201 197.33155058 -21.59765625 192.359375 C-21.59204986 190.93734691 -21.5877847 189.51531297 -21.58479309 188.09327698 C-21.57342619 184.37946117 -21.54403122 180.66600631 -21.51068115 176.95233154 C-21.47980261 173.15121338 -21.46625005 169.35003599 -21.45117188 165.54882812 C-21.41915204 158.11181594 -21.36805682 150.67509948 -21.3046875 143.23828125 C-22.21416389 143.04884193 -22.21416389 143.04884193 -23.14201355 142.85557556 C-23.9435939 142.68401443 -24.74517426 142.51245331 -25.57104492 142.33569336 C-26.36298752 142.16815048 -27.15493011 142.0006076 -27.97087097 141.82798767 C-31.45191517 140.94840091 -34.47425723 139.50889553 -37.6171875 137.80078125 C-38.57431641 137.28451172 -38.57431641 137.28451172 -39.55078125 136.7578125 C-46.40591188 132.87961111 -51.82749559 127.83995479 -57.3046875 122.23828125 C-57.96984375 121.60535156 -58.635 120.97242188 -59.3203125 120.3203125 C-63.33338367 116.2258953 -65.94862558 111.54511237 -68.5546875 106.48828125 C-68.88436523 105.85704346 -69.21404297 105.22580566 -69.55371094 104.57543945 C-74.44017004 94.60621264 -75.84640801 84.43130303 -75.7421875 73.42578125 C-75.73388916 72.28794189 -75.72559082 71.15010254 -75.71704102 69.9777832 C-75.33585532 50.9361334 -68.46816421 35.11976578 -55.3046875 21.23828125 C-40.26546676 6.79441693 -20.57593195 0.16051525 0 0 Z M-32.0546875 50.05078125 C-38.76076942 59.55106397 -40.17079289 68.75933511 -39.3046875 80.23828125 C-37.07948584 90.27076187 -31.8270562 98.05628186 -23.4375 103.92578125 C-12.73624361 110.5111698 -1.94620416 111.59245612 10.38696289 111.55395508 C12.49353219 111.55080262 14.5986822 111.57429625 16.70507812 111.59960938 C30.33405521 111.66447018 43.5119478 109.54141849 54.01953125 100.1640625 C62.49969593 91.18229843 65.06870909 82.03601363 64.98046875 69.921875 C64.23361692 60.27418626 60.00028572 52.14464318 52.9453125 45.61328125 C31.60533978 27.71141524 -13.03003642 30.59375174 -32.0546875 50.05078125 Z " fill="#A9A8A8" transform="translate(136.3046875,31.76171875)"/>
</svg>
